{
    "asset" : {
        "generator" : "Khronos glTF Blender I/O v1.6.16",
        "version" : "2.0"
    },
    "scene" : 0,
    "scenes" : [
        {
            "name" : "Scene",
            "nodes" : [
                0
            ]
        }
    ],
    "nodes" : [
        {
            "mesh" : 0,
            "name" : "Husky"
        }
    ],
    "materials" : [
        {
            "doubleSided" : true,
            "name" : "LSPACE",
            "pbrMetallicRoughness" : {
                "baseColorTexture" : {
                    "index" : 0
                },
                "metallicFactor" : 0,
                "roughnessFactor" : 0.4000000059604645
            }
        }
    ],
    "meshes" : [
        {
            "name" : "Cube",
            "primitives" : [
                {
                    "attributes" : {
                        "POSITION" : 0,
                        "NORMAL" : 1,
                        "TEXCOORD_0" : 2
                    },
                    "indices" : 3,
                    "material" : 0
                }
            ]
        }
    ],
    "textures" : [
        {
            "sampler" : 0,
            "source" : 0
        }
    ],
    "images" : [
        {
            "bufferView" : 4,
            "mimeType" : "image/png",
            "name" : "lspace"
        }
    ],
    "accessors" : [
        {
            "bufferView" : 0,
            "componentType" : 5126,
            "count" : 647,
            "max" : [
                2.9856925010681152,
                1.7225935459136963,
                4.177547454833984
            ],
            "min" : [
                -2.9856925010681152,
                0.019176959991455078,
                -1.8795020580291748
            ],
            "type" : "VEC3"
        },
        {
            "bufferView" : 1,
            "componentType" : 5126,
            "count" : 647,
            "type" : "VEC3"
        },
        {
            "bufferView" : 2,
            "componentType" : 5126,
            "count" : 647,
            "type" : "VEC2"
        },
        {
            "bufferView" : 3,
            "componentType" : 5123,
            "count" : 1026,
            "type" : "SCALAR"
        }
    ],
    "bufferViews" : [
        {
            "buffer" : 0,
            "byteLength" : 7764,
            "byteOffset" : 0
        },
        {
            "buffer" : 0,
            "byteLength" : 7764,
            "byteOffset" : 7764
        },
        {
            "buffer" : 0,
            "byteLength" : 5176,
            "byteOffset" : 15528
        },
        {
            "buffer" : 0,
            "byteLength" : 2052,
            "byteOffset" : 20704
        },
        {
            "buffer" : 0,
            "byteLength" : 14612,
            "byteOffset" : 22756
        }
    ],
    "samplers" : [
        {
            "magFilter" : 9728,
            "minFilter" : 9984
        }
    ],
    "buffers" : [
        {
            "byteLength" : 37368,
            "uri" : "data:application/octet-stream;base64,"
        }
    ]
}
